<svg xmlns="http://www.w3.org/2000/svg" xmlns:xlink="http://www.w3.org/1999/xlink" width="340" height="340" viewBox="0 0 340 340">
  <defs>
    <filter id="Mask" x="53" y="69" width="234" height="234" filterUnits="userSpaceOnUse">
      <feOffset dy="16" input="SourceAlpha"/>
      <feGaussianBlur stdDeviation="12" result="blur"/>
      <feFlood flood-color="#0c1523" flood-opacity="0.239"/>
      <feComposite operator="in" in2="blur"/>
      <feComposite in="SourceGraphic"/>
    </filter>
    <filter id="Mask-2" x="27" y="25" width="108" height="108" filterUnits="userSpaceOnUse">
      <feOffset dy="16" input="SourceAlpha"/>
      <feGaussianBlur stdDeviation="12" result="blur-2"/>
      <feFlood flood-color="#0c1523" flood-opacity="0.239"/>
      <feComposite operator="in" in2="blur-2"/>
      <feComposite in="SourceGraphic"/>
    </filter>
    <filter id="Mask-3" x="219" y="227" width="108" height="108" filterUnits="userSpaceOnUse">
      <feOffset dy="16" input="SourceAlpha"/>
      <feGaussianBlur stdDeviation="12" result="blur-3"/>
      <feFlood flood-color="#0c1523" flood-opacity="0.239"/>
      <feComposite operator="in" in2="blur-3"/>
      <feComposite in="SourceGraphic"/>
    </filter>
    <filter id="Mask-4" x="53" y="69" width="234" height="234" filterUnits="userSpaceOnUse">
      <feOffset dy="16" input="SourceAlpha"/>
      <feGaussianBlur stdDeviation="12" result="blur-4"/>
      <feFlood flood-color="#0c1523" flood-opacity="0.239"/>
      <feComposite operator="in" in2="blur-4"/>
      <feComposite in="SourceGraphic"/>
    </filter>
    <clipPath id="clip-path">
      <g transform="matrix(1, 0, 0, 1, 0, 0)" filter="url(#Mask)">
        <circle id="Mask-5" data-name="Mask" cx="81" cy="81" r="81" transform="translate(-0.04 -0.04)" fill="#845ef6"/>
      </g>
    </clipPath>
    <filter id="Mask-6" x="27" y="25" width="108" height="108" filterUnits="userSpaceOnUse">
      <feOffset dy="16" input="SourceAlpha"/>
      <feGaussianBlur stdDeviation="12" result="blur-5"/>
      <feFlood flood-color="#0c1523" flood-opacity="0.239"/>
      <feComposite operator="in" in2="blur-5"/>
      <feComposite in="SourceGraphic"/>
    </filter>
    <clipPath id="clip-path-2">
      <g transform="matrix(1, 0, 0, 1, 0, 0)" filter="url(#Mask-2)">
        <circle id="Mask-7" data-name="Mask" cx="18" cy="18" r="18" fill="#1ec997"/>
      </g>
    </clipPath>
    <filter id="Mask-8" x="219" y="227" width="108" height="108" filterUnits="userSpaceOnUse">
      <feOffset dy="16" input="SourceAlpha"/>
      <feGaussianBlur stdDeviation="12" result="blur-6"/>
      <feFlood flood-color="#0c1523" flood-opacity="0.239"/>
      <feComposite operator="in" in2="blur-6"/>
      <feComposite in="SourceGraphic"/>
    </filter>
    <clipPath id="clip-path-3">
      <g transform="matrix(1, 0, 0, 1, 0, 0)" filter="url(#Mask-3)">
        <circle id="Mask-9" data-name="Mask" cx="18" cy="18" r="18" fill="#ff6b6b"/>
      </g>
    </clipPath>
  </defs>
  <g id="Grupo_1" data-name="Grupo 1" transform="translate(-18 -72)">
    <g id="Graphic" transform="translate(18 72)">
      <g id="Lines">
        <path id="Oval" d="M79.49,159.989q-3.39-.055-6.709-.388l.1-.994q3.429.342,6.906.386l-.013,1Zm7.258-1.209q3.46-.258,6.865-.813l.16.987q-3.429.559-6.952.823ZM59.018,157l.272-.962q3.321.938,6.729,1.584l-.187.983Q62.37,157.944,59.018,157Zm41.4-.446q3.355-.857,6.615-2l.331.944q-3.286,1.156-6.7,2.029Zm-54.482-4.531.437-.9q3.109,1.508,6.346,2.74l-.356.934Q49.079,153.544,45.937,152.018Zm67.535-.064q3.148-1.431,6.16-3.134l.492.87q-3.04,1.719-6.239,3.174Zm-79.527-7.113.587-.81q2.8,2.029,5.773,3.807l-.513.859Q36.781,146.895,33.945,144.842Zm91.528.332q2.851-1.957,5.524-4.159l.635.772q-2.7,2.223-5.593,4.211ZM23.348,135.658l.718-.7q2.407,2.484,5.022,4.752l-.655.755Q25.785,138.176,23.348,135.658Zm112.793.732q2.469-2.422,4.72-5.053l.76.651q-2.277,2.661-4.779,5.117ZM14.52,124.795l.828-.561q1.939,2.863,4.121,5.549l-.776.63Q16.487,127.7,14.52,124.795Zm130.627,1.065q2.009-2.813,3.766-5.794l.862.509q-1.782,3.021-3.815,5.867ZM7.733,112.6l.914-.408q1.411,3.158,3.094,6.182l-.874.486Q9.168,115.807,7.733,112.6Zm144.421,1.379q1.488-3.12,2.7-6.364l.937.35q-1.229,3.294-2.734,6.445ZM3.168,99.348l.97-.242q.836,3.362,1.96,6.629l-.945.326Q4.019,102.767,3.168,99.348Zm153.817,1.674q.915-3.326,1.539-6.736l.984.179q-.633,3.465-1.559,6.823ZM.089,86.736,0,85.554.813,85.5v7.094l-.026,0Q.332,89.688.089,86.736ZM1,85.487l1-.068q.235,3.461.767,6.87l-.987.155Q1.239,89.01,1,85.487Zm158.47,1.934q.32-3.43.343-6.906l1,.006-.006.8q-.051,3.125-.338,6.191ZM.827,78.438q.069-3.532.436-6.984l.995.106q-.363,3.424-.431,6.9ZM158.7,66.7l.986-.167q.58,3.426.867,6.947l-1,.079Q159.274,70.1,158.7,66.7ZM2.311,64.507q.679-3.455,1.649-6.8l.96.277Q3.96,61.3,3.293,64.7ZM155.185,53.3l.941-.337q1.177,3.279,2.073,6.685l-.968.254Q156.354,56.547,155.185,53.3ZM6.207,51.06q1.272-3.275,2.818-6.407l.9.443q-1.528,3.1-2.782,6.327ZM149.375,40.727l.867-.5q1.739,3.028,3.216,6.217l-.908.42Q151.1,43.728,149.375,40.727ZM12.385,38.534q1.82-3,3.892-5.819l.806.592q-2.045,2.788-3.843,5.746Zm129.13-9.1.769-.64q2.24,2.687,4.243,5.566l-.821.571Q143.731,32.1,141.515,29.438ZM20.688,27.224q2.311-2.63,4.843-5.052l.691.723q-2.5,2.39-4.783,4.99Zm111.066-7.608.645-.764q2.677,2.261,5.148,4.747l-.709.7Q134.4,21.851,131.755,19.616ZM30.8,17.555q2.728-2.188,5.647-4.137L37,14.25q-2.877,1.92-5.576,4.086Zm89.634-5.916.5-.865q3.032,1.762,5.892,3.776l-.576.818Q123.427,13.378,120.434,11.64ZM42.411,9.8q3.062-1.678,6.281-3.092l.4.916q-3.167,1.391-6.2,3.054Zm65.525-4.023.344-.939q3.3,1.207,6.463,2.691l-.425.9Q111.189,6.968,107.936,5.779ZM55.245,4.172q3.3-1.112,6.725-1.94L62.2,3.2q-3.366.813-6.64,1.916ZM94.589,2.2l.173-.985q3.472.61,6.837,1.515l-.259.966Q98.006,2.8,94.589,2.2ZM68.89.882Q72.325.369,75.851.151l.061,1q-3.464.212-6.875.722ZM80.813,1V0l1.175.008Q84.923.051,87.8.3l-.085,1Q84.287,1,80.813,1Z" transform="translate(89.187 90)" fill="#c1c9d4"/>
        <path id="Oval-2" data-name="Oval" d="M112.341,218.975q3.479-.073,6.927-.364l.085,1q-3.467.292-6.99.367Zm-13.835.431.1-.995q3.441.358,6.919.5l-.041,1Q101.967,219.767,98.506,219.407Zm27.661-1.6q3.437-.512,6.824-1.238l.211.977q-3.4.73-6.887,1.249Zm-41.481-.737.229-.973q3.374.794,6.8,1.373l-.166.986Q88.08,217.874,84.686,217.073Zm55.081-2.186q3.34-.946,6.609-2.1l.334.942q-3.289,1.164-6.67,2.122ZM71.294,213l.354-.936q3.243,1.219,6.564,2.231l-.292.956Q74.561,214.227,71.294,213Zm81.57-2.749q3.189-1.366,6.285-2.932l.452.892q-3.116,1.577-6.342,2.959Zm-94.316-3,.468-.884q3.063,1.624,6.225,3.05l-.412.911Q61.633,208.887,58.549,207.25Zm106.714-3.278q2.99-1.762,5.863-3.711l.562.827q-2.894,1.964-5.917,3.745ZM46.608,199.909l.577-.817q2.835,2,5.792,3.82l-.525.851Q49.466,201.928,46.608,199.909Zm130.146-3.735q2.74-2.126,5.343-4.423l.661.75q-2.623,2.314-5.391,4.462ZM35.684,191.1l.676-.737q2.558,2.346,5.261,4.525l-.628.779Q38.266,193.468,35.684,191.1ZM187.1,187.049q2.452-2.453,4.746-5.059l.751.661q-2.314,2.627-4.789,5.1Zm-161.078-6,.763-.647q2.242,2.647,4.649,5.15l-.721.693Q28.286,183.725,26.022,181.051ZM196.293,176.6q2.122-2.745,4.066-5.62l.829.561q-1.963,2.9-4.1,5.672ZM17.663,169.806l.839-.544q1.889,2.909,3.959,5.7l-.8.6Q19.572,172.747,17.663,169.806Zm186.41-4.714q1.755-2.992,3.318-6.09l.893.451q-1.579,3.132-3.349,6.146ZM10.8,157.593l.9-.433q1.5,3.127,3.2,6.152l-.872.49Q12.321,160.755,10.8,157.593Zm199.507-4.865q1.359-3.187,2.514-6.461l.943.333q-1.168,3.31-2.537,6.521ZM5.547,144.585l.95-.314q1.091,3.3,2.39,6.512l-.928.374Q6.652,147.921,5.547,144.585Zm209.381-4.964q.94-3.336,1.666-6.735l.978.21q-.736,3.438-1.682,6.8ZM2,131.009l.981-.191q.66,3.411,1.535,6.764l-.968.253Q2.673,134.464,2,131.009Zm215.821-4.946q.5-3.425.795-6.892l1,.084q-.293,3.51-.8,6.954ZM.224,117.079l1-.064q.22,3.472.658,6.906l-.992.127Q.448,120.6.224,117.079Zm218.753-4.841Q219,111.12,219,110q0-2.329-.1-4.645l1-.043q.061,1.43.084,2.869L220,110l-.014,1.819-.008.44ZM0,110l.008-1.363q.034-2.723.2-5.412l1,.061Q1,106.629,1,110v.225Zm220,0v0Zm-2.539-18.356.986-.166q.582,3.432.95,6.934l-.995.105Q218.04,95.058,217.461,91.643ZM.851,96.252q.436-3.494,1.088-6.918l.982.186q-.647,3.4-1.077,6.857ZM214.258,78.1l.957-.293q1.018,3.334,1.83,6.757l-.973.23Q215.271,81.417,214.258,78.1ZM3.465,82.5q.875-3.4,1.96-6.718l.95.311Q5.3,79.389,4.432,82.753ZM209.348,65.091l.911-.412q1.44,3.181,2.682,6.466L212,71.5Q210.779,68.251,209.348,65.091ZM7.822,69.183q1.3-3.26,2.807-6.416l.9.43Q10.04,66.329,8.75,69.555Zm195-16.355.851-.526q1.836,2.974,3.485,6.07l-.883.471Q204.644,55.781,202.82,52.828ZM13.835,56.552q1.706-3.062,3.6-6l.841.542q-1.876,2.916-3.565,5.947ZM194.792,41.5l.778-.629q2.2,2.72,4.228,5.58l-.816.578Q196.976,44.2,194.792,41.5ZM21.425,44.762q2.08-2.822,4.334-5.5l.764.644q-2.233,2.657-4.294,5.45ZM185.406,31.292l.692-.722q2.529,2.423,4.9,5l-.736.677Q187.913,33.694,185.406,31.292ZM30.435,34.043q2.416-2.533,4.992-4.908l.678.734q-2.549,2.353-4.947,4.864Zm144.391-11.68.6-.8q2.813,2.086,5.488,4.343l-.645.764Q177.613,24.43,174.826,22.363ZM40.7,24.574q2.715-2.206,5.57-4.239l.58.815q-2.826,2.011-5.519,4.2Zm122.462-9.755.489-.872q3.059,1.712,5.994,3.61l-.543.84Q166.186,16.513,163.158,14.819Zm-111.05,1.63q2.971-1.843,6.065-3.5l.471.882q-3.059,1.636-6.008,3.466Zm98.52-7.625L151,7.9q3.256,1.308,6.407,2.817l-.43.9Q153.85,10.119,150.629,8.824ZM64.479,9.832q3.178-1.447,6.461-2.695l.356.934q-3.245,1.233-6.4,2.67Zm72.993-5.341.251-.968q3.4.884,6.72,1.977l-.314.949Q140.836,5.365,137.471,4.491Zm-59.885.363q3.333-1.026,6.753-1.845l.233.973q-3.378.807-6.691,1.827Zm46.26-2.983.127-.992q3.492.443,6.914,1.1l-.188.982Q127.3,2.309,123.846,1.871Zm-32.6-.278Q94.675,1,98.177.628l.106.995q-3.457.369-6.871.956ZM110,1l-1.219.007q-1.827.019-3.645.1l-.045-1q1.54-.069,3.09-.094L110,0l1.408.009q2.811.035,5.585.21l-.062,1Q113.48,1,110,1Z" transform="translate(60 60)" fill="#c1c9d4"/>
        <path id="Oval-3" data-name="Oval" d="M138.705,280h0Zm0-.011.009-.995,1.291.005q2.84,0,5.666-.113l.041,1Q142.871,280,140,280Zm-13.974-.812.109-.995q3.451.374,6.931.578l-.059,1Q128.2,279.554,124.732,279.177Zm27.892-.742q3.468-.313,6.9-.8l.14.99q-3.452.485-6.954.8ZM110.9,276.971l.208-.978q3.394.717,6.83,1.265l-.158.987Q114.307,277.692,110.9,276.971Zm55.4-.455q3.418-.655,6.791-1.479l.239.971q-3.39.829-6.842,1.49Zm-68.926-3.124.305-.953q3.308,1.056,6.669,1.946l-.256.967Q100.7,274.454,97.371,273.392Zm82.407-.167q3.333-.994,6.609-2.154l.335.942q-3.293,1.165-6.658,2.17Zm-95.5-4.754.4-.918q3.186,1.385,6.442,2.608l-.353.935Q87.482,269.863,84.277,268.472Zm108.635.1q3.213-1.324,6.356-2.808l.427.9q-3.159,1.49-6.4,2.828Zm-121.2-6.332.488-.873q3.033,1.7,6.15,3.244l-.443.9Q74.762,263.953,71.71,262.244Zm133.79.388q3.064-1.64,6.043-3.433l.516.857q-3,1.8-6.088,3.457ZM59.839,254.794l.573-.819q2.847,1.991,5.791,3.839l-.532.847Q62.7,256.8,59.839,254.794Zm157.586.663q2.885-1.939,5.672-4.02l.6.8q-2.8,2.1-5.713,4.05ZM48.771,246.2l.652-.759q2.637,2.267,5.383,4.4l-.614.789Q51.426,248.48,48.771,246.2Zm179.806.929q2.678-2.217,5.243-4.566l.676.738q-2.583,2.364-5.281,4.6ZM38.656,236.589l.725-.69q2.4,2.518,4.921,4.912l-.688.725Q41.074,239.124,38.656,236.589Zm200.185,1.142q2.442-2.47,4.761-5.06l.745.666q-2.334,2.608-4.8,5.1ZM29.508,225.986l.789-.615q2.136,2.74,4.406,5.372l-.757.653Q31.662,228.748,29.508,225.986Zm218.566,1.435q2.188-2.7,4.239-5.509l.808.589q-2.067,2.83-4.27,5.55ZM21.455,214.513l.846-.532q1.852,2.939,3.849,5.784l-.818.575Q23.324,217.479,21.455,214.513Zm234.831,1.664q1.909-2.907,3.67-5.907l.862.506q-1.775,3.024-3.7,5.95Zm-241.7-13.891.9-.446q1.55,3.113,3.253,6.144l-.872.49Q16.146,205.426,14.584,202.286Zm248.749,1.886q1.607-3.082,3.058-6.242l.908.418q-1.463,3.187-3.08,6.286ZM8.973,189.423l.935-.355q1.229,3.254,2.617,6.439l-.917.4Q10.212,192.706,8.973,189.423Zm260.157,2.121q1.289-3.225,2.415-6.515l.946.324q-1.135,3.32-2.432,6.562ZM4.688,176.06l.967-.257q.894,3.363,1.954,6.671l-.952.305Q5.591,179.454,4.688,176.06Zm268.942,2.334q.959-3.341,1.749-6.732l.974.227q-.8,3.424-1.761,6.781ZM1.793,162.463l.986-.16q.555,3.436,1.279,6.83l-.978.209Q2.352,165.931,1.793,162.463Zm274.993,2.385q.616-3.413,1.061-6.864l.992.128q-.45,3.484-1.069,6.915ZM.258,148.572l1-.06q.209,3.476.591,6.926l-.994.11Q.471,152.084.258,148.572Zm278.309,2.48q.271-3.457.374-6.941l1,.03q-.1,3.517-.375,6.989ZM0,140l.006-1.363q.02-2.043.1-4.071l1,.039Q1,137.3,1,140q0,.776.009,1.551l-1,.012Q0,140.783,0,140Zm0,0v0Zm278.661-9.792,1-.069q.242,3.474.313,6.992l-1,.021Q278.9,133.668,278.661,130.208ZM.544,127.571q.308-3.5.788-6.96l.99.139q-.477,3.438-.782,6.91ZM277.006,116.4l.986-.169q.587,3.436,1.006,6.926l-.993.12Q277.592,119.825,277.006,116.4Zm-274.541-2.7q.656-3.453,1.48-6.844l.971.236q-.818,3.375-1.469,6.8ZM274.01,102.959l.964-.266q.927,3.363,1.69,6.792l-.976.217Q274.934,106.307,274.01,102.959ZM5.772,100.087q1-3.368,2.163-6.663l.942.333q-1.156,3.278-2.147,6.615ZM269.636,89.743l.932-.362q1.262,3.253,2.366,6.585l-.949.315Q270.893,92.98,269.636,89.743ZM10.42,86.9q1.332-3.248,2.821-6.412l.9.427q-1.48,3.146-2.8,6.364Zm253.533-9.871.891-.454q1.585,3.114,3.018,6.316l-.913.409Q265.529,80.128,263.953,77.031ZM16.386,74.217q1.65-3.094,3.45-6.095l.858.514q-1.789,2.982-3.425,6.052Zm240.635-9.262.841-.541q1.89,2.94,3.635,5.981l-.867.5Q258.9,67.878,257.021,64.955ZM23.6,62.189q1.949-2.909,4.038-5.715l.8.6q-2.075,2.788-4.009,5.674Zm225.324-8.553.784-.622q2.175,2.739,4.214,5.588l-.814.581Q251.083,56.358,248.921,53.636ZM31.932,50.992q2.226-2.7,4.585-5.287l.74.673q-2.342,2.568-4.553,5.25Zm207.806-7.809.717-.7q2.437,2.51,4.747,5.14l-.751.66Q242.158,45.676,239.738,43.183ZM41.372,40.639q2.485-2.466,5.09-4.809l.669.744q-2.587,2.323-5.054,4.774ZM229.563,33.7l.644-.765q2.677,2.259,5.24,4.648l-.682.731Q232.222,35.94,229.563,33.7ZM51.8,31.274q2.713-2.2,5.539-4.275l.591.807q-2.8,2.053-5.5,4.244ZM218.543,25.3l.566-.823q2.89,1.983,5.674,4.1l-.606.8Q221.41,27.27,218.543,25.3ZM63.1,22.992q2.921-1.924,5.942-3.7l.508.862q-3,1.764-5.9,3.677Zm143.576-4.987.48-.877q3.074,1.685,6.053,3.515l-.524.852Q209.725,19.676,206.676,18.005ZM75.19,15.872q3.1-1.62,6.281-3.088l.419.908q-3.158,1.455-6.238,3.066Zm118.97-3.927.39-.921q3.231,1.368,6.376,2.892l-.436.9Q197.361,13.3,194.16,11.946ZM87.927,10q3.241-1.3,6.56-2.441l.326.946q-3.289,1.13-6.513,2.423Zm93.2-2.821.3-.955q3.353,1.037,6.634,2.236l-.344.94Q184.447,8.212,181.124,7.184ZM101.187,5.45q3.352-.965,6.773-1.767l.228.973q-3.387.794-6.725,1.754Zm66.45-1.7.2-.98q3.442.694,6.82,1.555l-.247.968Q171.045,4.435,167.637,3.748ZM114.7,2.281q3.429-.626,6.915-1.085l.131.992q-3.452.452-6.866,1.076Zm39.178-.6.1-1q3.5.347,6.952.865l-.148.989Q157.346,2.028,153.878,1.684ZM128.584.459q3.471-.281,6.988-.391l.031,1q-3.482.108-6.94.387ZM140,1V0l1.407.007q2.811.027,5.6.165l-.05,1Q143.488,1,140,1Z" transform="translate(30 30)" fill="#c1c9d4"/>
        <path id="Oval-4" data-name="Oval" d="M170,340h0Zm0,0h0l-1.692-.008q-1.69-.018-3.371-.066l.03-1Q167.479,339,170,339q.96,0,1.92-.011l.012,1Q170.967,340,170,340Zm8.9-1.23q3.482-.181,6.941-.5l.094,1q-3.472.323-6.982.5Zm-27.923.177.111-.994q3.451.383,6.925.628l-.071,1Q154.437,339.333,150.975,338.947Zm41.781-1.466q3.453-.464,6.877-1.07l.174.985q-3.436.607-6.917,1.076Zm-55.624-.656.192-.982q3.407.668,6.849,1.2l-.153.988Q140.551,337.5,137.131,336.825Zm69.345-1.771q3.4-.748,6.763-1.636l.255.967q-3.375.891-6.8,1.645ZM123.5,333.563l.273-.962q3.341.949,6.726,1.759l-.234.973Q126.858,334.515,123.5,333.563Zm96.381-2.045q3.326-1.026,6.605-2.189l.335.942q-3.291,1.168-6.644,2.2ZM110.21,329.189l.352-.936q3.256,1.223,6.564,2.312l-.313.949Q113.481,330.418,110.21,329.189Zm122.723-2.3q3.231-1.3,6.4-2.726l.411.912q-3.187,1.435-6.441,2.742ZM97.314,323.722l.428-.9q3.144,1.489,6.35,2.848l-.391.921Q100.474,325.219,97.314,323.722Zm148.339-2.56q3.11-1.559,6.154-3.246l.485.875q-3.058,1.694-6.191,3.266ZM84.9,317.2l.5-.865q3.013,1.746,6.1,3.366l-.465.885Q87.926,318.953,84.9,317.2Zm172.954-2.8q2.97-1.812,5.865-3.744l.554.832q-2.908,1.941-5.9,3.766ZM73.077,309.682l.572-.82q2.857,1.984,5.792,3.852l-.537.844Q75.949,311.679,73.077,309.682Zm196.36-3.018q2.813-2.051,5.541-4.216l.622.783q-2.742,2.176-5.575,4.241ZM61.956,301.256l.635-.772q2.688,2.214,5.463,4.317l-.6.8Q64.658,303.483,61.956,301.256Zm218.4-3.262q2.635-2.273,5.174-4.653l.684.729q-2.553,2.394-5.2,4.681ZM51.519,291.91l.7-.717q2.495,2.426,5.089,4.747l-.668.745Q54.029,294.35,51.519,291.91Zm239-3.433q2.441-2.481,4.777-5.062l.742.671q-2.35,2.595-4.805,5.092Zm-248.64-6.74.753-.658q2.288,2.622,4.682,5.148l-.725.688Q44.179,284.375,41.876,281.737Zm257.995-3.589q2.228-2.672,4.343-5.432l.794.608q-2.129,2.777-4.369,5.464ZM33.1,270.813l.8-.594q2.067,2.8,4.246,5.516l-.78.626Q35.183,273.632,33.1,270.813Zm275.2-3.668q2-2.844,3.885-5.769l.841.542q-1.9,2.943-3.908,5.8ZM25.248,259.189l.851-.526q1.828,2.961,3.777,5.845l-.829.561Q27.089,262.17,25.248,259.189Zm290.6-3.766q1.762-3,3.4-6.071l.883.471q-1.647,3.092-3.417,6.107ZM18.384,246.974l.891-.454q1.578,3.1,3.283,6.136l-.872.49Q19.975,250.1,18.384,246.974ZM322.4,243.126q1.507-3.135,2.884-6.331l.919.4q-1.386,3.221-2.9,6.37Zm-309.861-8.92.926-.378q1.315,3.221,2.762,6.385l-.909.417Q13.868,237.452,12.542,234.206Zm315.37-3.872q1.242-3.249,2.351-6.553l.948.318q-1.116,3.328-2.364,6.592Zm-320.1-9.256.954-.3q1.045,3.321,2.226,6.592l-.941.34Q8.86,224.426,7.808,221.079Zm324.529-3.934q.969-3.34,1.8-6.724l.971.239q-.837,3.409-1.81,6.764ZM4.181,207.636l.975-.221q.768,3.4,1.675,6.755l-.965.262Q4.954,211.06,4.181,207.636Zm331.474-4.005q.688-3.41,1.237-6.854l.987.158q-.552,3.47-1.244,6.892Zm-334-9.787.991-.139q.485,3.449,1.109,6.869l-.984.179Q2.148,197.324,1.659,193.845Zm336.186-3.979q.4-3.448.667-6.92l1,.076q-.266,3.5-.671,6.96ZM.284,179.91l1-.059q.2,3.48.541,6.938l-1,.1Q.486,183.418.284,179.91ZM338.9,176q.1-2.993.1-6l0-.959.994-.006L340,170l-.023,2.812q-.026,1.615-.082,3.224ZM0,170v0Zm0,0,.005-1.372q.011-1.37.043-2.735l1,.024Q1,167.956,1,170q0,1.439.024,2.875l-1,.015Q0,171.448,0,170Zm340,0v0Zm-1.645-14.871,1-.088q.3,3.474.465,6.986l-1,.047Q338.657,158.591,338.355,155.129ZM.356,158.9q.225-3.5.592-6.97l.995.105q-.365,3.452-.589,6.929Zm336.218-17.592.986-.169q.587,3.438,1.037,6.924l-.992.128Q337.161,144.738,336.575,141.312ZM1.832,144.96q.512-3.474,1.164-6.9l.983.187q-.649,3.413-1.157,6.858Zm331.83-17.268.968-.249q.871,3.38,1.606,6.814l-.977.209Q334.529,131.059,333.661,127.692ZM4.444,131.214q.8-3.418,1.733-6.782l.963.268q-.93,3.349-1.722,6.742Zm325.2-16.817.945-.328q1.149,3.3,2.164,6.656l-.958.289Q330.784,117.681,329.639,114.4ZM8.183,117.743q1.077-3.336,2.286-6.612l.939.346q-1.2,3.262-2.273,6.574Zm316.371-16.215.914-.406q1.416,3.193,2.7,6.454l-.93.368Q325.964,104.707,324.553,101.527ZM13.036,104.6q1.35-3.236,2.829-6.4l.906.424q-1.471,3.152-2.812,6.366ZM318.378,89.032l.878-.48q1.678,3.069,3.232,6.211l-.9.444Q320.048,92.085,318.378,89.032ZM18.97,91.886q1.612-3.112,3.348-6.146l.868.5q-1.727,3.02-3.328,6.11ZM311.193,77.091l.834-.551q1.925,2.92,3.733,5.923l-.857.517Q313.11,80,311.193,77.091ZM25.929,79.716q1.863-2.965,3.842-5.847l.824.566q-1.97,2.867-3.82,5.814ZM303.038,65.768l.787-.617q2.16,2.751,4.207,5.593l-.812.584Q305.186,68.506,303.038,65.768ZM33.826,68.215q2.1-2.8,4.31-5.517l.775.632q-2.2,2.7-4.285,5.485ZM294,55.172l.733-.68q2.379,2.566,4.651,5.231l-.76.648Q296.364,57.725,294,55.172ZM42.668,57.362q2.319-2.62,4.744-5.143l.721.692q-2.41,2.508-4.716,5.114ZM284.117,45.347l.676-.737q2.578,2.363,5.06,4.828l-.7.71Q286.682,47.7,284.117,45.347ZM52.381,47.256q2.527-2.421,5.152-4.739l.661.751q-2.608,2.3-5.12,4.711Zm221.088-10.89.614-.789q2.766,2.144,5.441,4.4l-.644.764Q276.219,38.5,273.469,36.366ZM62.9,37.976q2.715-2.2,5.521-4.3l.6.8q-2.789,2.08-5.49,4.275Zm199.282-9.648.546-.838q2.932,1.913,5.78,3.94l-.58.815Q265.091,30.227,262.177,28.328ZM74.125,29.6q2.888-1.976,5.859-3.834l.53.847q-2.951,1.847-5.824,3.811ZM250.2,21.2l.476-.88q3.085,1.667,6.092,3.455l-.511.86Q253.26,22.858,250.2,21.2Zm-164.182.958q3.039-1.729,6.153-3.337l.458.889q-3.092,1.594-6.116,3.317ZM237.679,15.1l.4-.916q3.21,1.405,6.35,2.937l-.438.9Q240.867,16.492,237.679,15.1Zm-139.189.63q3.168-1.471,6.407-2.815l.384.923q-3.214,1.334-6.369,2.8Zm126.2-5.683.325-.946q3.316,1.133,6.568,2.4l-.362.932Q227.979,11.169,224.686,10.044Zm-113.313.336q3.279-1.2,6.619-2.277l.306.952q-3.314,1.064-6.58,2.264ZM211.358,6.1l.245-.969q3.4.856,6.745,1.847l-.284.958Q214.733,6.946,211.358,6.1Zm-86.721.023Q128,5.19,131.422,4.4l.226.974q-3.393.787-6.746,1.714Zm73.089-2.857.164-.986q3.465.571,6.882,1.283l-.2.978Q201.163,3.83,197.726,3.263Zm-59.442-.31q3.428-.648,6.9-1.156l.145.989q-3.448.5-6.863,1.149ZM183.9,1.563l.081-1q3.5.285,6.956.709l-.121.993Q187.371,1.846,183.9,1.563ZM152.157.925q3.468-.362,6.977-.583l.064,1q-3.48.219-6.935.58ZM170,1V0l1.758.009q2.635.027,5.249.133l-.041,1Q173.492,1,170,1ZM166.132.043l1.057-.021L169.995,0V1q-1.922,0-3.839.043Z" fill="#c1c9d4"/>
      </g>
      <g id="Color_Images" data-name="Color Images" transform="translate(27 42)">
        <circle id="Oval-5" data-name="Oval" cx="92" cy="92" r="92" transform="translate(51 36)" fill="#fff"/>
        <g id="Image" transform="translate(62.04 47.04)">
          <g transform="matrix(1, 0, 0, 1, -89.04, -89.04)" filter="url(#Mask-4)">
            <circle id="Mask-10" data-name="Mask" cx="81" cy="81" r="81" transform="translate(89 89)" fill="#845ef6"/>
          </g>
        </g>
        <circle id="Oval-6" data-name="Oval" cx="20" cy="20" r="20" transform="translate(34 1)" fill="#fff"/>
        <g id="Image-3" data-name="Image" transform="translate(36 3)">
          <g transform="matrix(1, 0, 0, 1, -63, -45)" filter="url(#Mask-6)">
            <circle id="Mask-11" data-name="Mask" cx="18" cy="18" r="18" transform="translate(63 45)" fill="#1ec997"/>
          </g>
        </g>
        <circle id="Oval-7" data-name="Oval" cx="20" cy="20" r="20" transform="translate(226 203)" fill="#fff"/>
        <g id="Image-5" data-name="Image" transform="translate(228 205)">
          <g transform="matrix(1, 0, 0, 1, -255, -247)" filter="url(#Mask-8)">
            <circle id="Mask-12" data-name="Mask" cx="18" cy="18" r="18" transform="translate(255 247)" fill="#ff6b6b"/>
          </g>
        </g>
        <circle id="Oval-8" data-name="Oval" cx="12" cy="12" r="12" transform="translate(229 68)" fill="#22b8cf"/>
        <circle id="Oval-9" data-name="Oval" cx="7" cy="7" r="7" transform="translate(205)" fill="#cc5de8"/>
        <circle id="Oval-10" data-name="Oval" cx="7" cy="7" r="7" transform="translate(121 229)" fill="#1ec997"/>
        <circle id="Oval-11" data-name="Oval" cx="7" cy="7" r="7" transform="translate(0 91)" fill="#22b8cf"/>
        <circle id="Oval-12" data-name="Oval" cx="12" cy="12" r="12" transform="translate(27 210)" fill="#cc5de8"/>
        <circle id="Oval-13" data-name="Oval" cx="12" cy="12" r="12" transform="translate(53 131)" fill="#fcc418"/>
      </g>
    </g>
    <path id="Trazado_21" data-name="Trazado 21" d="M872.64,1070.826a7.914,7.914,0,1,1,0,4.885,7.918,7.918,0,0,1,0-4.885m-15.383-16.568c-.019.058-.036.118-.055.182a44.573,44.573,0,0,0,5.833,37.268,46.1,46.1,0,0,1,13.048-2.307c.153,0,.3,0,.454.008a32.522,32.522,0,0,1-7.825-31.624,5.994,5.994,0,0,0-11.455-3.527Zm.549,62.224a7.911,7.911,0,1,1,1.123,7.1,7.866,7.866,0,0,1-1.123-7.1m18.335-25.209a44.568,44.568,0,0,0-33.673,17.1,46.166,46.166,0,0,1,6.216,11.687c.056.151.1.3.143.455a32.54,32.54,0,0,1,27.686-17.26,5.994,5.994,0,0,0-.373-11.982ZM833.792,1042.6a7.914,7.914,0,0,1,15.439,2.452,8,8,0,0,1-.385,2.444,7.915,7.915,0,0,1-15.054-4.9m19.774,24.439a46.379,46.379,0,0,1,1.836-13.127c.023-.079.047-.156.073-.233s.051-.123.074-.185a32.549,32.549,0,0,1-32.493-2.331,5.992,5.992,0,1,0-6.739,9.911,44.507,44.507,0,0,0,37.249,5.965Zm-43.819,49.473A7.915,7.915,0,0,1,824.8,1121.4a7.778,7.778,0,0,1-1.127,2.208,7.914,7.914,0,0,1-13.93-7.1m1.382-13.026-.147.114-.038.026-.01.01c-.065.043-.132.083-.2.129a32.558,32.558,0,0,1,24.91,20.984,5.991,5.991,0,1,0,11.276-4.055,44.582,44.582,0,0,0-26.608-26.718A46.073,46.073,0,0,1,811.129,1103.487Zm-16.179-32.66A7.911,7.911,0,1,1,810,1075.715v0a7.911,7.911,0,1,1-15.047-4.893m20.311-8.2c-.123-.085-.237-.178-.358-.267a32.362,32.362,0,0,1-1.282,14.534l0,0v.006a32.342,32.342,0,0,1-10.973,15.632,5.989,5.989,0,0,0-1.066,8.406,6,6,0,0,0,8.257,1.182c.049-.039.1-.077.152-.118a44.27,44.27,0,0,0,15.035-21.4h0a44.475,44.475,0,0,0,2.152-12.169A46.194,46.194,0,0,1,815.26,1062.623Z" transform="translate(-654.241 -840.927)" fill="#fff"/>
  </g>
</svg>
